<svg width="24" height="24" viewBox="0 0 24 24" fill="none" xmlns="http://www.w3.org/2000/svg">
<rect width="24" height="23.6712" rx="11.8356" fill="white"/>
<path fill-rule="evenodd" clip-rule="evenodd" d="M11.832 13.5309L14.3849 16.1801C14.641 16.4479 14.8076 16.4507 15.0684 16.1801L15.5806 15.6485C15.8316 15.3881 15.8486 15.2173 15.5806 14.9392L12.8778 12.1349L15.5809 9.3306C15.834 9.06703 15.839 8.88916 15.5809 8.62109L15.0687 8.08971C14.803 7.8139 14.6388 7.82664 14.3851 8.08971L11.832 10.7389L9.27901 8.08996C9.02537 7.82689 8.8612 7.81415 8.59548 8.08996L8.08326 8.62134C7.82494 8.88941 7.82962 9.06728 8.08326 9.33085L10.7861 12.1349L8.08326 14.9392C7.81532 15.2173 7.82962 15.3881 8.08326 15.6485L8.59523 16.1801C8.85381 16.4507 9.02044 16.4479 9.27876 16.1801L11.832 13.5309Z" fill="#4F35C6"/>
</svg>
