<svg width="20" height="20" viewBox="0 0 20 20" fill="none" xmlns="http://www.w3.org/2000/svg">
<circle cx="10" cy="10" r="10" fill="#171717"/>
<path fill-rule="evenodd" clip-rule="evenodd" d="M10.5006 11.6436L13.4135 14.7623C13.7058 15.0776 13.8959 15.0808 14.1935 14.7623L14.7779 14.1365C15.0642 13.83 15.0836 13.6288 14.7779 13.3015L11.6939 10.0001L14.7782 6.69876C15.0671 6.38848 15.0727 6.17908 14.7782 5.8635L14.1938 5.23793C13.8906 4.91323 13.7032 4.92823 13.4138 5.23793L10.5006 8.35665L7.5876 5.23822C7.29818 4.92853 7.11087 4.91353 6.80767 5.23822L6.22322 5.86379C5.92846 6.17937 5.93381 6.38877 6.22322 6.69906L9.3072 10.0001L6.22322 13.3015C5.91749 13.6288 5.93381 13.83 6.22322 14.1365L6.80739 14.7623C7.10243 15.0808 7.29256 15.0776 7.58731 14.7623L10.5006 11.6436Z" fill="white"/>
</svg>
