<svg width="24" height="26" viewBox="0 0 24 26" fill="none" xmlns="http://www.w3.org/2000/svg">
<path d="M3.67098 5.67845C10.6314 3.93102 19.2848 4.03816 21.2847 6.31553C23.2846 8.59289 23.2434 16.2079 20.9056 18.2973C18.5691 20.3868 8.42229 20.5854 5.20771 18.2973C1.81149 15.8786 3.78205 8.43797 3.67098 3.93102C3.73762 1.40901 1 1 1 1" stroke="white" stroke-width="1.5" stroke-linecap="round" stroke-linejoin="round"/>
<path d="M14.7285 11.2835H18.3521" stroke="white" stroke-width="1.5" stroke-linecap="round" stroke-linejoin="round"/>
<path fill-rule="evenodd" clip-rule="evenodd" d="M5.72231 23.5769C6.11433 23.5769 6.43317 23.8958 6.43317 24.2878C6.43317 24.6811 6.11433 25 5.72231 25C5.32898 25 5.01013 24.6811 5.01013 24.2878C5.01013 23.8958 5.32898 23.5769 5.72231 23.5769Z" fill="white" stroke="white" stroke-width="1.5" stroke-linecap="round" stroke-linejoin="round"/>
<path fill-rule="evenodd" clip-rule="evenodd" d="M19.2229 23.5769C19.6162 23.5769 19.9351 23.8958 19.9351 24.2878C19.9351 24.6811 19.6162 25 19.2229 25C18.8309 25 18.512 24.6811 18.512 24.2878C18.512 23.8958 18.8309 23.5769 19.2229 23.5769Z" fill="white" stroke="white" stroke-width="1.5" stroke-linecap="round" stroke-linejoin="round"/>
</svg>
