<svg width="12" height="17" viewBox="0 0 12 17" fill="none" xmlns="http://www.w3.org/2000/svg">
<path fill-rule="evenodd" clip-rule="evenodd" d="M6.16091 15.5238C3.37721 15.5238 1 15.0907 1 13.3558C1 11.621 3.36213 10.0195 6.16091 10.0195C8.9446 10.0195 11.3218 11.6055 11.3218 13.3403C11.3218 15.0744 8.95968 15.5238 6.16091 15.5238Z" stroke="#4B5563" stroke-linecap="round" stroke-linejoin="round"/>
<path fill-rule="evenodd" clip-rule="evenodd" d="M6.15553 7.61548C7.98231 7.61548 9.46293 6.13486 9.46293 4.30808C9.46293 2.4813 7.98231 1 6.15553 1C4.32875 1 2.84743 2.4813 2.84743 4.30808C2.84128 6.12869 4.31162 7.60931 6.13223 7.61548C6.14045 7.61548 6.14799 7.61548 6.15553 7.61548Z" stroke="#4B5563" stroke-linecap="round" stroke-linejoin="round"/>
</svg>
