<svg width="15" height="20" viewBox="0 0 15 20" fill="none" xmlns="http://www.w3.org/2000/svg">
<path fill-rule="evenodd" clip-rule="evenodd" d="M7.20113 19.4048C3.72151 19.4048 0.75 18.8633 0.75 16.6948C0.75 14.5262 3.70266 12.5244 7.20113 12.5244C10.6808 12.5244 13.6523 14.5068 13.6523 16.6754C13.6523 18.843 10.6996 19.4048 7.20113 19.4048Z" stroke="#D1D1D1" stroke-linecap="round" stroke-linejoin="round"/>
<path fill-rule="evenodd" clip-rule="evenodd" d="M7.19448 9.51935C9.47795 9.51935 11.3287 7.66858 11.3287 5.3851C11.3287 3.10163 9.47795 1.25 7.19448 1.25C4.911 1.25 3.05935 3.10163 3.05935 5.3851C3.05166 7.66086 4.88958 9.51164 7.16534 9.51935C7.17563 9.51935 7.18505 9.51935 7.19448 9.51935Z" stroke="#D1D1D1" stroke-linecap="round" stroke-linejoin="round"/>
</svg>
