<svg width="22" height="22" viewBox="0 0 22 22" fill="none" xmlns="http://www.w3.org/2000/svg">
<path d="M9.12439 17.5827H1.00045" stroke="white" stroke-width="1.5" stroke-linecap="round" stroke-linejoin="round"/>
<path fill-rule="evenodd" clip-rule="evenodd" d="M14.2219 17.5838C14.2219 20.1465 15.0765 21 17.6381 21C20.1997 21 21.0543 20.1465 21.0543 17.5838C21.0543 15.021 20.1997 14.1675 17.6381 14.1675C15.0765 14.1675 14.2219 15.021 14.2219 17.5838Z" stroke="white" stroke-width="1.5" stroke-linecap="round" stroke-linejoin="round"/>
<path d="M12.9311 4.41794H21.0539" stroke="white" stroke-width="1.5" stroke-linecap="round" stroke-linejoin="round"/>
<path fill-rule="evenodd" clip-rule="evenodd" d="M7.83358 4.41623C7.83358 1.85462 6.97897 1 4.41735 1C1.85462 1 1 1.85462 1 4.41623C1 6.97897 1.85462 7.83246 4.41735 7.83246C6.97897 7.83246 7.83358 6.97897 7.83358 4.41623Z" stroke="white" stroke-width="1.5" stroke-linecap="round" stroke-linejoin="round"/>
</svg>
