<svg width="15" height="14" viewBox="0 0 15 14" fill="none" xmlns="http://www.w3.org/2000/svg">
<g clip-path="url(#clip0_1528_4161)">
<path fill-rule="evenodd" clip-rule="evenodd" d="M4.66563 0.621874C5.39875 0.590374 5.6325 0.583374 7.5 0.583374C9.3675 0.583374 9.60125 0.590957 10.3337 0.621874C11.0662 0.652791 11.5662 0.761874 12.0037 0.919957C12.4619 1.08154 12.8775 1.33412 13.2212 1.66079C13.5712 1.98104 13.8413 2.36837 14.0138 2.79654C14.1838 3.20487 14.3 3.67154 14.3337 4.35404C14.3675 5.03946 14.375 5.25762 14.375 7.00004C14.375 8.74304 14.3669 8.96121 14.3337 9.64546C14.3006 10.328 14.1838 10.7946 14.0138 11.203C13.8412 11.6312 13.5708 12.0192 13.2212 12.3399C12.8775 12.6665 12.4619 12.9185 12.0037 13.0795C11.5662 13.2382 11.0662 13.3467 10.335 13.3782C9.60125 13.4097 9.3675 13.4167 7.5 13.4167C5.6325 13.4167 5.39875 13.4091 4.66563 13.3782C3.93438 13.3473 3.43438 13.2382 2.99688 13.0795C2.53808 12.9185 2.12239 12.6661 1.77875 12.3399C1.42899 12.0194 1.15832 11.6316 0.985625 11.2035C0.81625 10.7952 0.7 10.3285 0.66625 9.64604C0.6325 8.96062 0.625 8.74246 0.625 7.00004C0.625 5.25704 0.633125 5.03887 0.66625 4.35521C0.699375 3.67154 0.81625 3.20487 0.985625 2.79654C1.15858 2.36842 1.42945 1.98064 1.77937 1.66021C2.12253 1.33383 2.5378 1.08122 2.99625 0.919957C3.43375 0.761874 3.93375 0.653374 4.665 0.621874H4.66563ZM10.2781 1.77687C9.55312 1.74596 9.33562 1.73954 7.5 1.73954C5.66437 1.73954 5.44688 1.74596 4.72187 1.77687C4.05125 1.80546 3.6875 1.90987 3.445 1.99796C3.12438 2.11462 2.895 2.25287 2.65438 2.47746C2.42628 2.68457 2.25074 2.93671 2.14062 3.21537C2.04625 3.44171 1.93438 3.78121 1.90375 4.40712C1.87063 5.08379 1.86375 5.28679 1.86375 7.00004C1.86375 8.71329 1.87063 8.91629 1.90375 9.59296C1.93438 10.2189 2.04625 10.5584 2.14062 10.7847C2.25063 11.063 2.42625 11.3155 2.65438 11.5226C2.87625 11.7355 3.14688 11.8995 3.445 12.0021C3.6875 12.0902 4.05125 12.1946 4.72187 12.2232C5.44688 12.2541 5.66375 12.2605 7.5 12.2605C9.33625 12.2605 9.55312 12.2541 10.2781 12.2232C10.9487 12.1946 11.3125 12.0902 11.555 12.0021C11.8756 11.8855 12.105 11.7472 12.3456 11.5226C12.5738 11.3155 12.7494 11.063 12.8594 10.7847C12.9538 10.5584 13.0656 10.2189 13.0963 9.59296C13.1294 8.91629 13.1362 8.71329 13.1362 7.00004C13.1362 5.28679 13.1294 5.08379 13.0963 4.40712C13.0656 3.78121 12.9538 3.44171 12.8594 3.21537C12.7344 2.91612 12.5863 2.70204 12.3456 2.47746C12.1237 2.26458 11.8536 2.10075 11.555 1.99796C11.3125 1.90987 10.9487 1.80546 10.2781 1.77687ZM6.62188 8.97812C7.11229 9.16866 7.65836 9.19437 8.16683 9.05088C8.6753 8.90738 9.11462 8.60357 9.40976 8.19135C9.70489 7.77912 9.83753 7.28405 9.78503 6.79068C9.73252 6.29732 9.49813 5.83627 9.12187 5.48629C8.88202 5.26257 8.59201 5.09126 8.27271 4.98471C7.95341 4.87815 7.61277 4.839 7.27531 4.87007C6.93785 4.90113 6.61197 5.00164 6.32113 5.16437C6.03028 5.32709 5.78171 5.54797 5.59331 5.81112C5.40491 6.07427 5.28137 6.37313 5.23157 6.68618C5.18178 6.99924 5.20697 7.31871 5.30534 7.62159C5.40371 7.92447 5.5728 8.20323 5.80045 8.43779C6.0281 8.67236 6.30864 8.8569 6.62188 8.97812ZM5.00125 4.66787C5.32939 4.36161 5.71895 4.11867 6.14769 3.95292C6.57642 3.78717 7.03594 3.70186 7.5 3.70186C7.96406 3.70186 8.42358 3.78717 8.85231 3.95292C9.28105 4.11867 9.67061 4.36161 9.99875 4.66787C10.3269 4.97414 10.5872 5.33773 10.7648 5.73788C10.9424 6.13803 11.0338 6.56692 11.0338 7.00004C11.0338 7.43316 10.9424 7.86205 10.7648 8.2622C10.5872 8.66235 10.3269 9.02594 9.99875 9.33221C9.33604 9.95074 8.43721 10.2982 7.5 10.2982C6.56279 10.2982 5.66396 9.95074 5.00125 9.33221C4.33854 8.71368 3.96623 7.87477 3.96623 7.00004C3.96623 6.12531 4.33854 5.2864 5.00125 4.66787ZM11.8175 4.19304C11.8988 4.12145 11.9639 4.03535 12.0089 3.93986C12.054 3.84436 12.078 3.74141 12.0796 3.63708C12.0813 3.53276 12.0605 3.42919 12.0184 3.33251C11.9764 3.23583 11.914 3.14801 11.835 3.07423C11.7559 3.00045 11.6618 2.94223 11.5582 2.90301C11.4547 2.86379 11.3437 2.84436 11.2319 2.84588C11.1201 2.8474 11.0098 2.86984 10.9075 2.91186C10.8052 2.95389 10.713 3.01465 10.6362 3.09054C10.4871 3.23814 10.4054 3.43419 10.4086 3.63708C10.4117 3.83997 10.4995 4.03372 10.6532 4.1772C10.807 4.32068 11.0145 4.40259 11.2319 4.40555C11.4493 4.40851 11.6594 4.33228 11.8175 4.19304Z" fill="white"/>
</g>
<defs>
<clipPath id="clip0_1528_4161">
<rect width="15" height="14" fill="white"/>
</clipPath>
</defs>
</svg>
