<svg width="32" height="32" viewBox="0 0 32 32" fill="none" xmlns="http://www.w3.org/2000/svg">
<path d="M29.3333 24.0067C29.3333 24.74 28.7387 25.3333 28.0067 25.3333H17.3267C16.9748 25.3333 16.6374 25.1936 16.3886 24.9448C16.1398 24.696 16 24.3585 16 24.0067C16 23.6548 16.1398 23.3174 16.3886 23.0686C16.6374 22.8198 16.9748 22.68 17.3267 22.68H28.0067C28.74 22.68 29.3333 23.2733 29.3333 24.0067Z" fill="#111827"/>
<path d="M29.3333 16C29.3333 16.7333 28.7387 17.3267 28.0067 17.3267H3.99333C3.64148 17.3267 3.30403 17.1869 3.05524 16.9381C2.80644 16.6893 2.66666 16.3519 2.66666 16C2.66666 15.6482 2.80644 15.3107 3.05524 15.0619C3.30403 14.8131 3.64148 14.6733 3.99333 14.6733H28.0067C28.74 14.6733 29.3333 15.268 29.3333 16Z" fill="#111827"/>
<path d="M28.0067 9.31999C28.3585 9.31999 28.696 9.18022 28.9448 8.93142C29.1936 8.68262 29.3333 8.34518 29.3333 7.99332C29.3333 7.64147 29.1936 7.30403 28.9448 7.05523C28.696 6.80643 28.3585 6.66666 28.0067 6.66666H11.9933C11.8191 6.66666 11.6466 6.70097 11.4856 6.76764C11.3247 6.83431 11.1784 6.93204 11.0552 7.05523C10.932 7.17842 10.8343 7.32467 10.7677 7.48563C10.701 7.64659 10.6667 7.8191 10.6667 7.99332C10.6667 8.16754 10.701 8.34006 10.7677 8.50102C10.8343 8.66198 10.932 8.80823 11.0552 8.93142C11.1784 9.05461 11.3247 9.15233 11.4856 9.219C11.6466 9.28567 11.8191 9.31999 11.9933 9.31999H28.0067Z" fill="#111827"/>
</svg>
