<svg width="16" height="16" viewBox="0 0 16 16" fill="none" xmlns="http://www.w3.org/2000/svg">
<path d="M7.5 2C2.62535 2 1 3.62535 1 8.5C1 13.3746 2.62535 15 7.5 15C12.3746 15 14 13.3746 14 8.5" stroke="#4F35C6" stroke-linecap="round" stroke-linejoin="round"/>
<path fill-rule="evenodd" clip-rule="evenodd" d="M12.7901 3.0918C12.0923 2.47412 11.0263 2.53877 10.4086 3.23655C10.4086 3.23655 7.33849 6.70439 6.2739 7.90812C5.2079 9.11115 5.9893 10.773 5.9893 10.773C5.9893 10.773 7.74887 11.3303 8.79871 10.1441C9.84925 8.95796 12.9348 5.47326 12.9348 5.47326C13.5525 4.77547 13.4871 3.70947 12.7901 3.0918Z" stroke="#4F35C6" stroke-linecap="round" stroke-linejoin="round"/>
<path d="M9.61426 4.14374L12.1405 6.38044" stroke="#4F35C6" stroke-linecap="round" stroke-linejoin="round"/>
</svg>
