<svg width="28" height="24" viewBox="0 0 28 24" fill="none" xmlns="http://www.w3.org/2000/svg">
<path d="M22.2857 22.2857H12V15.4286H10.2857V22.2857H5.14287V15.4286H3.42859V22.2857C3.42859 22.7404 3.6092 23.1764 3.93069 23.4979C4.25218 23.8194 4.68822 24 5.14287 24H22.2857C22.7404 24 23.1764 23.8194 23.4979 23.4979C23.8194 23.1764 24 22.7404 24 22.2857V15.4286H22.2857V22.2857Z" fill="white"/>
<path d="M27.2486 7.94571L23.7514 0.951429C23.6095 0.665818 23.3907 0.425461 23.1197 0.257383C22.8486 0.0893042 22.5361 0.000169236 22.2172 0H5.21144C4.89251 0.000169236 4.57995 0.0893042 4.30891 0.257383C4.03786 0.425461 3.81908 0.665818 3.67716 0.951429L0.180013 7.94571C0.06061 8.18528 -0.0010357 8.44947 1.31632e-05 8.71714V11.3571C-0.000769431 11.7577 0.138731 12.1459 0.394299 12.4543C0.772007 12.8873 1.2385 13.2338 1.76207 13.4705C2.28564 13.7071 2.85402 13.8283 3.42858 13.8257C4.3661 13.8272 5.27503 13.503 6.00001 12.9086C6.72499 13.5033 7.63372 13.8284 8.57144 13.8284C9.50916 13.8284 10.4179 13.5033 11.1429 12.9086C11.8678 13.5033 12.7766 13.8284 13.7143 13.8284C14.652 13.8284 15.5607 13.5033 16.2857 12.9086C17.0107 13.5033 17.9194 13.8284 18.8572 13.8284C19.7949 13.8284 20.7036 13.5033 21.4286 12.9086C22.2379 13.5731 23.2732 13.8979 24.3171 13.8148C25.3609 13.7316 26.3318 13.247 27.0257 12.4629C27.2844 12.1556 27.427 11.7673 27.4286 11.3657V8.71714C27.4296 8.44947 27.368 8.18528 27.2486 7.94571ZM24 12.1114C23.6339 12.1106 23.2733 12.0222 22.9483 11.8537C22.6232 11.6853 22.3432 11.4415 22.1314 11.1429L21.4286 10.1829L20.7343 11.1429C20.5185 11.4369 20.2366 11.6761 19.9112 11.8409C19.5858 12.0057 19.2262 12.0916 18.8614 12.0916C18.4967 12.0916 18.1371 12.0057 17.8117 11.8409C17.4863 11.6761 17.2043 11.4369 16.9886 11.1429L16.2857 10.1829L15.5914 11.1429C15.3757 11.4369 15.0937 11.6761 14.7683 11.8409C14.4429 12.0057 14.0833 12.0916 13.7186 12.0916C13.3538 12.0916 12.9942 12.0057 12.6688 11.8409C12.3435 11.6761 12.0615 11.4369 11.8457 11.1429L11.1429 10.1829L10.4486 11.1429C10.2328 11.4369 9.95084 11.6761 9.62546 11.8409C9.30009 12.0057 8.94047 12.0916 8.57573 12.0916C8.21098 12.0916 7.85136 12.0057 7.52599 11.8409C7.20062 11.6761 6.91863 11.4369 6.70287 11.1429L6.00001 10.1829L5.29716 11.1429C5.08542 11.4415 4.80536 11.6853 4.48032 11.8537C4.15529 12.0222 3.79469 12.1106 3.42858 12.1114C3.10556 12.1154 2.78544 12.0501 2.48974 11.92C2.19405 11.7899 1.92964 11.598 1.7143 11.3571V8.71714L5.21144 1.71429H22.2172L25.7143 8.70857V11.3314C25.5002 11.5756 25.2367 11.7715 24.9411 11.9059C24.6455 12.0404 24.3247 12.1105 24 12.1114Z" fill="white"/>
</svg>
