<svg width="15" height="14" viewBox="0 0 15 14" fill="none" xmlns="http://www.w3.org/2000/svg">
<path d="M14.7769 2.87988C14.255 3.09571 13.6944 3.24155 13.105 3.30746C13.7131 2.96784 14.1681 2.43332 14.385 1.80363C13.8137 2.12037 13.1883 2.34333 12.5363 2.4628C12.0977 2.0258 11.5169 1.73615 10.884 1.63882C10.251 1.54149 9.60132 1.64193 9.03578 1.92453C8.47024 2.20713 8.02049 2.65609 7.75635 3.20171C7.49222 3.74732 7.42847 4.35907 7.57501 4.94196C6.41731 4.88771 5.28478 4.60687 4.2509 4.11766C3.21702 3.62845 2.30491 2.94181 1.57376 2.1023C1.32376 2.5048 1.18001 2.97146 1.18001 3.46846C1.17973 3.91588 1.29778 4.35644 1.52368 4.75106C1.74959 5.14568 2.07636 5.48215 2.47501 5.73063C2.01268 5.7169 1.56055 5.6003 1.15626 5.39055V5.42555C1.15621 6.05306 1.38878 6.66127 1.8145 7.14696C2.24022 7.63266 2.83286 7.96592 3.49188 8.09021C3.063 8.19855 2.61334 8.2145 2.17688 8.13688C2.36282 8.67682 2.725 9.14898 3.21274 9.48725C3.70047 9.82553 4.28933 10.013 4.89688 10.0234C3.86553 10.779 2.59181 11.1889 1.28063 11.1871C1.04837 11.1872 0.816305 11.1745 0.585632 11.1492C1.91656 11.9479 3.46585 12.3718 5.04813 12.3701C10.4044 12.3701 13.3325 8.22963 13.3325 4.63863C13.3325 4.52196 13.3294 4.40413 13.3238 4.28746C13.8933 3.90303 14.385 3.42699 14.7756 2.88163L14.7769 2.87988Z" fill="white"/>
</svg>
