<svg width="60" height="60" viewBox="0 0 60 60" fill="none" xmlns="http://www.w3.org/2000/svg">
<g clip-path="url(#clip0_241_70)">
<path d="M29.1562 0.199219L2.28516 13.1602C1.94531 13.3242 1.73438 13.6641 1.73438 14.0391V45.9492C1.73438 46.3242 1.94531 46.6641 2.28516 46.8281L29.1562 59.8008C29.6953 60.0586 30.3164 60.0586 30.8555 59.8008L57.7266 46.8281C58.0664 46.6641 58.2773 46.3242 58.2773 45.9492V14.0391C58.2773 13.6641 58.0664 13.3242 57.7266 13.1602L30.8438 0.199219C30.3164 -0.0703125 29.6836 -0.0703125 29.1562 0.199219Z" fill="#FFE17D"/>
<path d="M1.89844 13.5117C1.79297 13.6641 1.73438 13.8516 1.73438 14.0508V45.9609C1.73438 46.3359 1.94531 46.6758 2.28516 46.8398L29.1562 59.8125C29.4258 59.9414 29.7187 60.0117 30 60.0117V27.0703L1.89844 13.5117Z" fill="#FFC350"/>
<path d="M58.1016 13.5117C58.207 13.6641 58.2656 13.8516 58.2656 14.0508V45.9609C58.2656 46.3359 58.0547 46.6758 57.7148 46.8398L30.8438 59.8008C30.5742 59.9297 30.293 60 30 60V27.0703L58.1016 13.5117Z" fill="#FFD164"/>
<path d="M9.77349 44.2617C9.63286 44.2617 9.49224 44.2266 9.35161 44.168L5.20318 42.1523C4.72271 41.918 4.51177 41.332 4.74615 40.8516C4.98052 40.3711 5.56646 40.1601 6.04693 40.3945L10.1954 42.3984C10.6758 42.6328 10.8868 43.2187 10.6524 43.6992C10.4883 44.0508 10.1368 44.2617 9.77349 44.2617Z" fill="#FFE17D"/>
<path d="M13.5938 41.7773C13.4532 41.7773 13.3126 41.7422 13.1719 41.6836L5.2149 37.8398C4.73443 37.6055 4.52349 37.0195 4.75786 36.5391C4.99224 36.0586 5.57818 35.8476 6.05865 36.082L14.0157 39.9258C14.4961 40.1602 14.7071 40.7461 14.4727 41.2266C14.3086 41.5664 13.9571 41.7773 13.5938 41.7773Z" fill="#FFF6D8"/>
<path d="M48.5742 18.0937L20.3789 4.46484L12.9375 8.07422L41.2031 21.7148L48.5742 18.0937Z" fill="#FF8087"/>
<path d="M41.2031 21.7148V32.2852C41.2031 32.6484 41.5781 32.8828 41.9063 32.7188L48.0234 29.7656C48.3633 29.6016 48.5742 29.2617 48.5742 28.8867V18.082L41.2031 21.7148Z" fill="#E6646E"/>
</g>
<defs>
<clipPath id="clip0_241_70">
<rect width="60" height="60" fill="white"/>
</clipPath>
</defs>
</svg>
